<?xml version="1.0"?>
<svg xmlns="http://www.w3.org/2000/svg" xmlns:xlink="http://www.w3.org/1999/xlink" xmlns:svgjs="http://svgjs.com/svgjs" version="1.1" width="512" height="512" x="0" y="0" viewBox="0 0 512 512" style="enable-background:new 0 0 512 512" xml:space="preserve" class=""><g><linearGradient xmlns="http://www.w3.org/2000/svg" id="SVGID_1_" gradientUnits="userSpaceOnUse" x1="36" x2="476" y1="256" y2="256"><stop stop-opacity="1" stop-color="#9dd6fc" offset="0"/><stop stop-opacity="1" stop-color="#d6d6d6" offset="0.0056"/><stop stop-opacity="1" stop-color="#d6d6d6" offset="1"/></linearGradient><g xmlns="http://www.w3.org/2000/svg"><g><path d="m336 392c-11.046 0-20 8.954-20 20v40c0 11.028-8.972 20-20 20h-200c-11.028 0-20-8.972-20-20v-392c0-11.028 8.972-20 20-20h200c11.028 0 20 8.969 20 20 0 11.046 8.954 19.997 20 19.997s20-8.957 20-20.003c0-33.081-26.916-59.994-60-59.994h-200c-33.084 0-60 26.916-60 60v392c0 33.084 26.916 60 60 60h200c33.084 0 60-26.916 60-60v-40c0-11.046-8.954-20-20-20zm-100-296c0-11.046-8.954-20-20-20h-40c-11.046 0-20 8.954-20 20s8.954 20 20 20h40c11.046 0 20-8.954 20-20zm-80 316c0 11.046 8.954 20 20 20h40c11.046 0 20-8.954 20-20s-8.954-20-20-20h-40c-11.046 0-20 8.954-20 20zm300-216h-27.639l-34.472-68.944c-4.939-9.879-16.951-13.884-26.833-8.944-9.879 4.94-13.884 16.954-8.944 26.833l25.527 51.055h-95.278l25.528-51.056c4.939-9.879.935-21.893-8.944-26.833-9.88-4.938-21.893-.935-26.833 8.944l-34.473 68.945h-27.639c-13.068 0-22.363 12.324-19.465 24.596l21.07 89.228c6.42 27.188 30.433 46.176 58.395 46.176h120c27.962 0 51.975-18.988 58.395-46.176l21.07-89.228c2.926-12.39-6.513-24.596-19.465-24.596zm-40.535 104.631c-2.136 9.049-10.141 15.369-19.465 15.369h-120c-9.324 0-17.329-6.32-19.465-15.369l-15.262-64.631h38.596c10.846 0 14.396 0 14.328 0h136.53z" fill="url(#SVGID_1_)" data-original="url(#SVGID_1_)" style=""/></g></g></g></svg>
